
<svg xmlns="http://www.w3.org/2000/svg" width="187" height="200" viewBox="0 0 187 200" fill="none"><path fill="#fff" stroke="#D7D7D7" stroke-width="3" d="M15.6017 155.362L1.62673 34.2124 93.1 1.59252l91.473 32.61988-13.975 121.1496L93.1 198.285l-77.4983-42.923z"/><path fill="#D7D7D7" d="M93.1 0v22.2-.1V200l78.9-43.7 14.2-123.1L93.1 0z"/><path fill="#31429D" d="M108.877 95.4151c2.548 1.137 5.308 1.7136 8.096 1.6912 4.472.0152 8.819-1.4788 12.345-4.2426 3.526-2.7638 6.026-6.6371 7.099-10.9989 1.073-4.3617.657-8.9591-1.181-13.0549-1.839-4.0959-4.993-7.4528-8.957-9.5324-3.964-2.0797-8.508-2.7616-12.904-1.9363-4.396.8252-8.389 3.1097-11.338 6.4871-2.9491 3.3775-4.6839 7.6522-4.9262 12.1386-.2422 4.4864 1.0221 8.9245 3.5902 12.6027l-8.0157 8.134-7.8554-7.8924c2.476-3.4132 3.7965-7.5346 3.7674-11.7581-.0317-4.2703-1.4303-8.417-3.9891-11.827-2.5588-3.4099-6.1419-5.9019-10.2194-7.1076-4.0775-1.2057-8.433-1.061-12.4223.4127-3.9894 1.4737-7.4008 4.1982-9.7297 7.7705-2.329 3.5723-3.4519 7.8028-3.2027 12.0659.2492 4.2631 1.8573 8.3325 4.5864 11.6063 2.7292 3.2739 6.4346 5.5784 10.5682 6.5728 4.1336.9944 8.476.6259 12.385-1.0511l8.657 8.6974-34.3075 34.55 2.9659 3.06c.5884.594 1.2879 1.066 2.0582 1.388.7703.321 1.5964.487 2.4306.487s1.6603-.166 2.4306-.487c.7703-.322 1.4698-.794 2.0582-1.388l29.8186-30.039 30.1397 30.361c.588.594 1.287 1.066 2.058 1.388.77.321 1.596.487 2.43.487.835 0 1.661-.166 2.431-.487.77-.322 1.47-.794 2.058-1.388l2.966-3.06-34.628-34.872 8.737-8.7779zm-8.176-18.362c0-3.2528.961-6.4324 2.762-9.1358 1.8-2.7035 4.359-4.8092 7.351-6.0503 2.993-1.2411 6.285-1.5617 9.459-.9212 3.174.6405 6.088 2.2132 8.371 4.5189 2.284 2.3058 3.835 5.2407 4.457 8.4329.622 3.1922.286 6.4981-.963 9.4987-1.25 3.0006-3.359 5.5608-6.058 7.3564-2.7 1.7955-5.869 2.7455-9.107 2.7295-1.799-.0065-3.586-.3056-5.29-.8858-3.206-1.1323-5.983-3.235-7.949-6.0186-1.967-2.7835-3.026-6.1111-3.033-9.5247zM73.7682 92.6769c-1.6258.554-3.3334.8263-5.05.8053-3.2375.016-6.4069-.934-9.1065-2.7295-2.6996-1.7956-4.808-4.3558-6.0579-7.3564-1.25-3.0006-1.5853-6.3065-.9634-9.4987.6219-3.1922 2.1729-6.1271 4.4566-8.4329 2.2836-2.3057 5.1972-3.8784 8.3713-4.5189 3.1742-.6405 6.4662-.3199 9.4588.9212 2.9926 1.2411 5.5513 3.3468 7.3516 6.0503 1.8004 2.7034 2.7615 5.883 2.7615 9.1358-.0057 3.2356-.9531 6.3989-2.7253 9.1005-2.02 3.074-5.0139 5.3727-8.4967 6.5233z"/></svg>